<svg width="24" height="16" viewBox="0 0 24 16" fill="none" xmlns="http://www.w3.org/2000/svg">
<path d="M2.40005 0H10.4C10.8244 0 11.2314 0.168571 11.5314 0.468629C11.8315 0.768687 12 1.17565 12 1.6C12 2.02435 11.8315 2.43131 11.5314 2.73137C11.2314 3.03143 10.8244 3.2 10.4 3.2H2.40005C1.9757 3.2 1.56874 3.03143 1.26868 2.73137C0.96862 2.43131 0.800049 2.02435 0.800049 1.6C0.800049 1.17565 0.96862 0.768687 1.26868 0.468629C1.56874 0.168571 1.9757 0 2.40005 0ZM13.6 12.8H21.6C22.0244 12.8 22.4314 12.9686 22.7314 13.2686C23.0315 13.5687 23.2 13.9757 23.2 14.4C23.2 14.8243 23.0315 15.2313 22.7314 15.5314C22.4314 15.8314 22.0244 16 21.6 16H13.6C13.1757 16 12.7687 15.8314 12.4687 15.5314C12.1686 15.2313 12 14.8243 12 14.4C12 13.9757 12.1686 13.5687 12.4687 13.2686C12.7687 12.9686 13.1757 12.8 13.6 12.8ZM2.40005 6.4H21.6C22.0244 6.4 22.4314 6.56857 22.7314 6.86863C23.0315 7.16869 23.2 7.57565 23.2 8C23.2 8.42435 23.0315 8.83131 22.7314 9.13137C22.4314 9.43143 22.0244 9.6 21.6 9.6H2.40005C1.9757 9.6 1.56874 9.43143 1.26868 9.13137C0.96862 8.83131 0.800049 8.42435 0.800049 8C0.800049 7.57565 0.96862 7.16869 1.26868 6.86863C1.56874 6.56857 1.9757 6.4 2.40005 6.4Z" fill="#33A137"/>
</svg>
